#N canvas 532 399 691 438 10;
#X declare -path armoire;
#N canvas 723 623 668 383 GemInit 0;
#X msg 44 223 destroy;
#X obj 44 24 gemkeyboard;
#X floatatom 44 74 5 0 0 0 - - -, f 5;
#X obj 44 91 sel 9;
#X obj 140 25 key;
#X floatatom 140 95 5 0 0 0 - - -, f 5;
#X obj 140 112 sel 27;
#X obj 44 129 tgl 15 0 empty empty empty 17 7 0 10 -262144 -1 -1 0
1;
#X obj 44 154 sel 0 1;
#X obj 309 78 pix_texture;
#X obj 309 105 rectangle 7.111 4;
#X obj 309 24 gemhead 1;
#X text 406 24 Affichage de l'interface;
#X obj 44 315 gemwin 25;
#X obj 311 159 declare -path armoire;
#X text 264 159 ====>;
#X obj -22 65 loadbang;
#X obj 129 144 sel 1;
#X msg -22 112 1;
#X obj 129 173 s reloadbang;
#X obj 309 51 pix_image armoire/interface-AstroFlux-II.png;
#X msg 124 261 border 0 \, offset -1000 24 \, dimen 1920 1080 \, create
\, 1;
#X msg 120 222 border 0 \, offset 0 0 \, dimen 1920 1080 \, create
\, 1;
#X connect 0 0 13 0;
#X connect 1 0 2 0;
#X connect 2 0 3 0;
#X connect 3 0 7 0;
#X connect 4 0 5 0;
#X connect 5 0 6 0;
#X connect 6 0 7 0;
#X connect 7 0 8 0;
#X connect 7 0 17 0;
#X connect 8 0 0 0;
#X connect 8 1 22 0;
#X connect 9 0 10 0;
#X connect 11 0 20 0;
#X connect 16 0 18 0;
#X connect 17 0 19 0;
#X connect 18 0 7 0;
#X connect 20 0 9 0;
#X connect 21 0 13 0;
#X connect 22 0 13 0;
#X restore 431 34 pd GemInit;
#N canvas 1635 286 862 508 stream 0;
#X obj 103 157 sel 0 1;
#X obj 103 102 tgl 15 0 empty empty empty 17 7 0 10 -262144 -1 -1 0
1;
#X text 130 102 start/stop stream;
#X obj 103 -49 ctlin 25;
#X obj 103 -22 > 120;
#X obj 103 5 change;
#X obj 415 66 gemhead;
#X obj 415 176 text2d;
#X floatatom 470 66 5 0 0 0 - - -, f 5;
#X floatatom 525 67 5 0 0 0 - - -, f 5;
#X floatatom 582 162 5 0 0 0 - - -, f 5;
#X obj 582 134 init 13;
#X obj 415 123 color 1 0 0;
#X msg 423 151 text > streaming <;
#X obj 415 41 tgl 15 0 empty empty empty 17 7 0 10 -262144 -1 -1 0
1;
#X obj 103 128 t f f;
#X obj 228 145 sel 0 1;
#X msg 266 177 1;
#X msg 228 177 0;
#X obj 228 199 t f f;
#X obj 415 95 translateXYZ 0 3.79 0;
#X obj 545 -51 loadbang;
#X obj 415 14 metro 1000;
#X obj 5 272 s stopStream;
#X obj 126 272 s startStream;
#X floatatom 214 -7 5 0 0 0 - - -, f 5;
#X msg 214 44 1;
#X obj 214 -30 gemkeyboard;
#X obj 215 11 sel 32;
#X connect 0 0 23 0;
#X connect 0 1 24 0;
#X connect 1 0 15 0;
#X connect 3 0 4 0;
#X connect 4 0 5 0;
#X connect 5 0 1 0;
#X connect 6 0 20 0;
#X connect 8 0 20 1;
#X connect 9 0 20 2;
#X connect 10 0 7 1;
#X connect 11 0 10 0;
#X connect 11 0 13 0;
#X connect 12 0 7 0;
#X connect 13 0 7 0;
#X connect 14 0 6 0;
#X connect 15 0 0 0;
#X connect 15 1 16 0;
#X connect 16 0 18 0;
#X connect 16 1 17 0;
#X connect 17 0 22 0;
#X connect 18 0 19 0;
#X connect 19 0 14 0;
#X connect 19 1 22 0;
#X connect 20 0 12 0;
#X connect 21 0 18 0;
#X connect 22 0 14 0;
#X connect 25 0 28 0;
#X connect 26 0 1 0;
#X connect 27 0 25 0;
#X connect 28 0 26 0;
#X coords 0 -1 1 1 170 20 2 100 100;
#X restore 431 218 pd stream;
#X obj 71 320 AF_image;
#X obj 71 347 AF_titrage;
#N canvas 270 347 540 515 gestion 0;
#X obj 293 472 rectangle;
#X obj 323 418 t f f;
#X floatatom 323 394 5 0 0 0 - - -, f 5;
#X obj 293 79 hradio 15 1 0 8 empty empty empty 0 -8 0 10 -262144 -1
-1 2;
#X floatatom 348 317 5 0 0 0 - - -, f 5;
#X floatatom 403 317 5 0 0 0 - - -, f 5;
#X obj 293 25 r choix-video-pre;
#X obj 323 367 init 2.37;
#X obj 353 448 expr $f1*9.015/16;
#X obj 293 341 translateXYZ 2.75 2.21 0;
#X obj 293 52 + 1;
#X obj 85 469 rectangle;
#X obj 115 415 t f f;
#X floatatom 115 391 5 0 0 0 - - -, f 5;
#X obj 85 76 hradio 15 1 0 8 empty empty empty 0 -8 0 10 -262144 -1
-1 6;
#X floatatom 142 314 5 0 0 0 - - -, f 5;
#X floatatom 199 314 5 0 0 0 - - -, f 5;
#X obj 85 277 separator;
#X obj 115 364 init 2.37;
#X obj 145 445 expr $f1*9.015/16;
#X obj 93 112 r video-0;
#X obj 102 132 r video-1;
#X obj 85 49 + 1;
#X obj 85 22 r choix-video-live;
#X obj 111 152 r video-2;
#X obj 120 172 r video-3;
#X obj 85 338 translateXYZ -2.75 2.21 0;
#X obj 293 277 separator;
#X obj 301 112 r video-0;
#X obj 310 132 r video-1;
#X obj 319 152 r video-2;
#X obj 328 172 r video-3;
#X obj 129 192 r video-4;
#X obj 337 192 r video-4;
#X obj 85 250 switch 6;
#X obj 293 250 switch 6;
#X obj 138 212 r video-5;
#X obj 346 212 r video-5;
#X connect 1 0 0 1;
#X connect 1 1 8 0;
#X connect 2 0 1 0;
#X connect 3 0 35 0;
#X connect 4 0 9 1;
#X connect 5 0 9 2;
#X connect 6 0 10 0;
#X connect 7 0 2 0;
#X connect 8 0 0 2;
#X connect 9 0 0 0;
#X connect 10 0 3 0;
#X connect 12 0 11 1;
#X connect 12 1 19 0;
#X connect 13 0 12 0;
#X connect 14 0 34 0;
#X connect 15 0 26 1;
#X connect 16 0 26 2;
#X connect 17 0 26 0;
#X connect 18 0 13 0;
#X connect 19 0 11 2;
#X connect 20 0 34 1;
#X connect 21 0 34 2;
#X connect 22 0 14 0;
#X connect 23 0 22 0;
#X connect 24 0 34 3;
#X connect 25 0 34 4;
#X connect 26 0 11 0;
#X connect 27 0 9 0;
#X connect 28 0 35 1;
#X connect 29 0 35 2;
#X connect 30 0 35 3;
#X connect 31 0 35 4;
#X connect 32 0 34 5;
#X connect 33 0 35 5;
#X connect 34 0 17 0;
#X connect 35 0 27 0;
#X connect 36 0 34 6;
#X connect 37 0 35 6;
#X restore 74 61 pd gestion Live-Pre;
#N canvas 558 351 715 246 controls 0;
#X obj 248 83 gemkeyboard;
#X floatatom 248 105 5 0 0 0 - - -, f 5;
#X obj 248 172 s key;
#X obj 143 37 gemmouse;
#X obj 143 169 s X;
#X obj 156 118 s Y;
#X obj 169 67 s bt-G;
#X obj 275 128 init 24;
#X floatatom 143 145 5 0 0 0 - - -, f 5;
#X floatatom 156 94 5 0 0 0 - - -, f 5;
#X obj 53 37 alias8;
#X obj 314 155 init 39;
#X text 246 32 initialisation;
#X text 246 52 des videos en live et preview;
#N canvas 288 524 847 475 axis 0;
#X obj 676 98 ctlin 13;
#X obj 419 126 ctlin 5;
#X obj 676 126 expr $f1 * 360 / 127;
#X msg 401 301 ./armoire/tilt.sh \$1;
#X msg 658 301 ./armoire/pan.sh \$1;
#X obj 676 153 - 180;
#X obj 419 153 expr $f1 * -85 / 127;
#X obj 419 180 t f b;
#X obj 401 274 f;
#X obj 676 180 t f b;
#X obj 658 274 f;
#X obj 451 207 del 200;
#X obj 708 207 del 200;
#X msg 129 300 ./armoire/zoom.sh \$1 &;
#X obj 147 46 ctlin 21;
#X obj 147 46 ctlin 21;
#X obj 147 179 t f b;
#X obj 129 273 f;
#X obj 179 206 del 200;
#X obj 147 98 exp;
#X obj 147 71 maxlib/scale 0 127 0 2.3;
#X obj 147 152 * 1000;
#X obj 147 125 - 1;
#X obj 401 428 shell;
#X connect 0 0 2 0;
#X connect 1 0 6 0;
#X connect 2 0 5 0;
#X connect 3 0 23 0;
#X connect 4 0 23 0;
#X connect 5 0 9 0;
#X connect 6 0 7 0;
#X connect 7 0 8 1;
#X connect 7 1 11 0;
#X connect 8 0 3 0;
#X connect 9 0 10 1;
#X connect 9 1 12 0;
#X connect 10 0 4 0;
#X connect 11 0 8 0;
#X connect 12 0 10 0;
#X connect 13 0 23 0;
#X connect 14 0 20 0;
#X connect 16 0 17 1;
#X connect 16 1 18 0;
#X connect 17 0 13 0;
#X connect 18 0 17 0;
#X connect 19 0 22 0;
#X connect 20 0 19 0;
#X connect 21 0 16 0;
#X connect 22 0 21 0;
#X restore 533 31 pd axis;
#X connect 0 0 1 0;
#X connect 1 0 2 0;
#X connect 3 0 8 0;
#X connect 3 1 9 0;
#X connect 3 2 6 0;
#X connect 7 0 2 0;
#X connect 8 0 4 0;
#X connect 9 0 5 0;
#X connect 11 0 2 0;
#X restore 431 61 pd controls;
#N canvas 50 124 894 287 acquisition-stream 0;
#X floatatom 78 58 0 0 0 0 - - -;
#X obj 78 161 timer;
#X obj 78 108 mod 2;
#X obj 78 81 t f f;
#X floatatom 78 188 5 0 0 0 - - -, f 5;
#X obj 78 135 sel 0 1;
#N canvas 174 257 967 643 video 0;
#X obj 80 206 pix_film;
#X obj 203 339 netsend;
#X msg 646 322 connect localhost 45000;
#X obj 646 295 loadbang;
#X obj 80 -204 gemhead;
#X obj 80 299 pix_texture;
#X msg 123 58 open video/\$1.mov;
#X floatatom 17 114 5 0 0 0 - - -, f 5;
#X msg 17 87 125;
#X obj 123 -20 t a a;
#X msg 203 31 send choix open video/\$1.mov;
#X obj 381 245 s key;
#X obj 123 -47 f;
#X msg 231 261 send play bang;
#X obj 262 93 0;
#X obj 314 110 + 1;
#X obj 106 233 unpack f f f;
#X obj 262 140 t f f;
#X obj 311 174 sel;
#X obj 262 7 metro 40;
#X text 262 -250 play;
#X msg 261 -227 1;
#X msg 459 268 send stop bang;
#X msg 459 70 0;
#X text 462 53 stop;
#X msg 387 -80 0;
#X msg 381 218 26;
#X text 414 218 (3) video live qui apparait a la fin du clip;
#X obj 311 201 t b;
#X obj 17 54 del 500;
#N canvas 517 209 410 726 controleurMIDI 0;
#X obj 33 309 t b b;
#X obj 109 309 t b b;
#X msg 141 347 0;
#X obj 56 389 loadbang;
#X obj 56 416 t b b;
#X msg 65 342 1;
#X obj 51 128 t f f;
#X obj 33 195 >;
#X obj 51 101 change;
#X obj 33 239 sel 1 0;
#X obj 56 637 outlet;
#X floatatom 69 520 5 0 0 0 - - -, f 5;
#X obj 51 74 div 15;
#X obj 56 589 spigot;
#X obj 122 545 sel 0 1;
#X msg 122 599 1;
#X msg 145 572 0;
#X obj 160 490 inlet;
#X obj 188 411 shell;
#X floatatom 188 439 5 0 0 0 - - -, f 5;
#X obj 188 281 loadbang;
#X obj 56 490 counter 0 1 69;
#X msg 188 384 ls video/ | wc -l;
#X obj 188 308 del 1000;
#X text 200 362 dans le dossier video;
#X text 199 349 Récupère le nb de fichier;
#X obj 51 46 ctlin 22;
#X connect 0 0 21 0;
#X connect 0 1 5 0;
#X connect 1 0 21 0;
#X connect 1 1 2 0;
#X connect 2 0 21 1;
#X connect 3 0 4 0;
#X connect 4 0 21 0;
#X connect 4 1 21 2;
#X connect 5 0 21 1;
#X connect 6 0 7 1;
#X connect 6 1 7 0;
#X connect 7 0 9 0;
#X connect 8 0 6 0;
#X connect 9 0 0 0;
#X connect 9 1 1 0;
#X connect 12 0 8 0;
#X connect 13 0 10 0;
#X connect 14 0 15 0;
#X connect 14 1 16 0;
#X connect 15 0 13 1;
#X connect 16 0 13 1;
#X connect 17 0 14 0;
#X connect 18 0 19 0;
#X connect 19 0 21 4;
#X connect 20 0 23 0;
#X connect 21 0 11 0;
#X connect 21 0 13 0;
#X connect 22 0 18 0;
#X connect 23 0 22 0;
#X connect 26 0 12 0;
#X restore 91 -143 pd controleurMIDI;
#X obj -15 -64 init 1;
#X obj 442 -259 r choix-video-live;
#X floatatom 442 -232 5 0 0 0 - - -, f 5;
#X obj 771 -58 > 64;
#X obj 771 -31 change;
#X obj 106 260 - 5;
#X obj 750 81 - 10;
#X obj 732 18 spigot;
#X obj 732 114 sel;
#X obj 787 2 s loop;
#X text 725 -120 gestion de la boucle;
#X text 836 2 vers AF_video 4;
#X obj -17 -114 r reloadbang;
#X msg 220 -3 1;
#X obj 261 -200 t f b b;
#X obj 231 188 sel 1;
#X obj 91 -110 t b a;
#X floatatom 220 159 5 0 0 0 - - -, f 5;
#X obj 252 233 bng 15 250 50 0 empty empty empty 17 7 0 10 -262144
-1 -1;
#X obj 80 339 s video-5;
#X obj 442 -208 sel 5 0 1 2 3 4;
#X obj 771 -85 ctlin 14;
#X connect 0 0 5 0;
#X connect 0 1 16 0;
#X connect 2 0 1 0;
#X connect 3 0 2 0;
#X connect 4 0 0 0;
#X connect 5 0 50 0;
#X connect 6 0 0 0;
#X connect 7 0 0 1;
#X connect 8 0 7 0;
#X connect 9 0 6 0;
#X connect 9 1 10 0;
#X connect 10 0 1 0;
#X connect 12 0 9 0;
#X connect 13 0 1 0;
#X connect 14 0 15 0;
#X connect 14 0 0 1;
#X connect 14 0 17 0;
#X connect 14 0 48 0;
#X connect 15 0 14 1;
#X connect 16 0 36 0;
#X connect 16 0 37 0;
#X connect 17 0 46 0;
#X connect 17 1 18 0;
#X connect 17 1 38 0;
#X connect 18 0 28 0;
#X connect 19 0 14 0;
#X connect 21 0 45 0;
#X connect 22 0 1 0;
#X connect 23 0 19 0;
#X connect 23 0 14 1;
#X connect 23 0 8 0;
#X connect 23 0 22 0;
#X connect 23 0 30 0;
#X connect 25 0 14 1;
#X connect 26 0 11 0;
#X connect 28 0 23 0;
#X connect 28 0 26 0;
#X connect 29 0 8 0;
#X connect 30 0 47 0;
#X connect 31 0 12 0;
#X connect 32 0 33 0;
#X connect 33 0 51 0;
#X connect 34 0 35 0;
#X connect 35 0 38 1;
#X connect 35 0 40 0;
#X connect 36 0 18 1;
#X connect 37 0 39 1;
#X connect 38 0 39 0;
#X connect 39 0 21 0;
#X connect 43 0 12 0;
#X connect 44 0 10 0;
#X connect 45 0 30 0;
#X connect 45 0 19 0;
#X connect 45 1 25 0;
#X connect 45 2 12 0;
#X connect 46 0 13 0;
#X connect 46 0 49 0;
#X connect 47 0 29 0;
#X connect 47 1 12 0;
#X connect 51 0 21 0;
#X connect 51 1 23 0;
#X connect 51 2 23 0;
#X connect 51 3 23 0;
#X connect 51 4 23 0;
#X connect 51 5 23 0;
#X connect 52 0 34 0;
#X coords 0 643 1 642 85 200 0;
#X restore 672 38 pd video;
#X obj 574 38 captation 4;
#X obj 194 38 captation 0;
#X obj 289 38 captation 1;
#X obj 479 38 captation 3;
#X obj 384 38 captation 2;
#X msg 574 11 both;
#X obj 574 -16 loadbang;
#X connect 0 0 3 0;
#X connect 1 0 4 0;
#X connect 2 0 5 0;
#X connect 3 0 2 0;
#X connect 5 0 1 0;
#X connect 5 1 1 1;
#X connect 12 0 7 0;
#X connect 13 0 12 0;
#X restore 74 34 pd acquisition-stream videoIn;
#N canvas 1281 81 780 857 stream 0;
#X obj 84 307 pix_record;
#X floatatom 117 334 0 0 0 0 - - -;
#X obj 116 84 spigot;
#X obj 155 59 tgl 15 0 empty empty empty 0 -6 0 8 -262144 -1 -1 1 1
;
#X obj 84 32 t a b;
#X obj 84 459 pix_texture;
#X obj 104 243 r startStream;
#X obj 84 666 rectangle 2.37 1.335;
#X obj 189 612 t f f;
#X obj 221 639 expr $f1*9.015/16;
#X obj 84 422 spigot;
#X obj 123 382 tgl 15 0 empty empty empty 17 7 0 10 -262144 -1 -1 0
1;
#X obj 200 6 loadbang;
#X msg 200 42 1;
#X floatatom 189 586 5 0 0 0 - - -, f 5;
#X obj 84 216 pix_flip;
#X obj 96 160 loadbang;
#X msg 96 187 vertical;
#X floatatom 184 492 5 0 0 0 - - -, f 5;
#X floatatom 134 492 5 0 0 0 - - -, f 5;
#X obj 166 106 pack f f;
#X floatatom 219 90 5 0 0 0 - - -, f 5;
#X floatatom 166 90 5 0 0 0 - - -, f 5;
#X obj 84 133 pix_snap 269 658 640 360;
#X obj 84 5 gemhead 500;
#N canvas 1 81 450 300 directToDisk 0;
#X obj 250 107 t a a;
#X obj 250 156 pix_separator;
#X obj 250 213 pix_record;
#X msg 71 17 codec x264 \, file test.avi \, record 1;
#X floatatom 283 254 5 0 0 0 - - -, f 5;
#X msg 107 196 record 0;
#X connect 0 0 1 0;
#X connect 1 0 2 0;
#X connect 2 1 4 0;
#X connect 3 0 2 0;
#X connect 5 0 2 0;
#X restore 442 455 pd directToDisk;
#X obj 84 543 rotateXYZ 180 0 0;
#X text 151 217 retourne les pixels pour le stream (config Woza ?)
;
#X text 211 543 retourne l'image dont les pixels ont été mis à l'envers
;
#X obj 363 569 init 1;
#X obj 84 516 translateXYZ 0 -2.29 0;
#X text 143 382 retour flux realisé;
#X msg 104 270 codec v4l2 \, file /dev/video20 \, record 1;
#X connect 0 0 10 0;
#X connect 0 1 1 0;
#X connect 2 0 23 0;
#X connect 3 0 2 1;
#X connect 4 0 23 0;
#X connect 4 1 2 0;
#X connect 5 0 30 0;
#X connect 6 0 32 0;
#X connect 8 0 7 1;
#X connect 8 1 9 0;
#X connect 9 0 7 2;
#X connect 10 0 5 0;
#X connect 11 0 10 1;
#X connect 12 0 13 0;
#X connect 13 0 3 0;
#X connect 14 0 8 0;
#X connect 15 0 0 0;
#X connect 16 0 17 0;
#X connect 17 0 15 0;
#X connect 18 0 30 2;
#X connect 19 0 30 1;
#X connect 20 0 23 1;
#X connect 21 0 20 1;
#X connect 22 0 20 0;
#X connect 23 0 15 0;
#X connect 24 0 4 0;
#X connect 26 0 7 0;
#X connect 29 0 14 0;
#X connect 30 0 26 0;
#X connect 32 0 0 0;
#X coords 0 -1 1 1 170 20 2 120 380;
#X restore 431 248 pd stream flux realisé;
#X obj 71 158 AF_video 0 24 38 -5.85 -0.2 24 485;
#N canvas 107 133 871 576 VU-metre 0;
#X obj 86 24 gemhead;
#X obj 669 236 s sX;
#X floatatom 669 210 5 0 0 0 - - -, f 5;
#X floatatom 754 215 5 0 0 0 - - -, f 5;
#X obj 754 241 s sY;
#X floatatom 669 293 5 0 0 0 - - -, f 5;
#X obj 669 319 s tY;
#X floatatom 143 82 5 0 0 0 - - -, f 5;
#X floatatom 200 82 5 0 0 0 - - -, f 5;
#X floatatom 259 231 5 0 0 0 - - -, f 5;
#X floatatom 307 231 5 0 0 0 - - -, f 5;
#X obj 754 83 bng 15 250 50 0 empty empty empty 17 7 0 10 -262144 -1
-1;
#X obj 211 180 separator;
#X obj 86 180 separator;
#X obj 86 133 t a a;
#X obj 211 255 translateXYZ 0.12 0 0;
#X obj 669 183 init 0.04;
#X obj 754 183 init 0.04;
#X obj 669 266 init -0.11;
#X obj 468 156 netreceive 45100;
#X obj 468 183 route son-G son-D;
#X obj 468 327 s son-G;
#X obj 526 327 s son-D;
#X obj 86 282 LED 1 0 0 99 G;
#X obj 595 183 init 100;
#X obj 86 52 alpha;
#X obj 86 309 LED 1 0.5 0 89 G;
#X obj 86 336 LED 1 1 0 79 G;
#X obj 86 363 LED 0 1 0 69 G;
#X obj 86 390 LED 0 1 0 59 G;
#X obj 86 417 LED 0 1 0 49 G;
#X obj 86 444 LED 0 1 0 39 G;
#X obj 86 471 LED 0 1 0 29 G;
#X obj 86 498 LED 0 1 0 19 G;
#X obj 211 282 LED 1 0 0 99 D;
#X obj 211 309 LED 1 0.5 0 89 D;
#X obj 211 336 LED 1 1 0 79 D;
#X obj 211 363 LED 0 1 0 69 D;
#X obj 211 390 LED 0 1 0 59 D;
#X obj 211 417 LED 0 1 0 49 D;
#X obj 211 444 LED 0 1 0 39 D;
#X obj 211 471 LED 0 1 0 29 D;
#X obj 211 498 LED 0 1 0 19 D;
#X obj 86 525 LED 0 1 0 9 G;
#X obj 211 525 LED 0 1 0 9 D;
#X obj 86 106 translateXYZ -0.05 2.04 0;
#X connect 0 0 25 0;
#X connect 2 0 1 0;
#X connect 3 0 4 0;
#X connect 5 0 6 0;
#X connect 7 0 45 1;
#X connect 8 0 45 2;
#X connect 9 0 15 1;
#X connect 10 0 15 2;
#X connect 11 0 16 0;
#X connect 11 0 17 0;
#X connect 11 0 18 0;
#X connect 11 0 24 0;
#X connect 12 0 15 0;
#X connect 13 0 23 0;
#X connect 14 0 13 0;
#X connect 14 1 12 0;
#X connect 15 0 34 0;
#X connect 16 0 2 0;
#X connect 17 0 3 0;
#X connect 18 0 5 0;
#X connect 19 0 20 0;
#X connect 20 0 21 0;
#X connect 20 1 22 0;
#X connect 23 0 26 0;
#X connect 24 0 22 0;
#X connect 24 0 21 0;
#X connect 25 0 45 0;
#X connect 26 0 27 0;
#X connect 27 0 28 0;
#X connect 28 0 29 0;
#X connect 29 0 30 0;
#X connect 30 0 31 0;
#X connect 31 0 32 0;
#X connect 32 0 33 0;
#X connect 33 0 43 0;
#X connect 34 0 35 0;
#X connect 35 0 36 0;
#X connect 36 0 37 0;
#X connect 37 0 38 0;
#X connect 38 0 39 0;
#X connect 39 0 40 0;
#X connect 40 0 41 0;
#X connect 41 0 42 0;
#X connect 42 0 44 0;
#X connect 45 0 14 0;
#X restore 431 88 pd VU-metre;
#N canvas 421 129 440 118 infos 0;
#X text 31 30 Ce patch est le fruit du dévelopement du Labomedia à
Orléans --> http://labomedia.org;
#X text 31 60 Copyright Labomedia 2013 publié sous les termes de la
license GPL v3.0;
#X restore 431 114 pd infos;
#X obj 71 266 AF_video 4 28 42 3.51 -0.2 1288 485;
#X obj 71 185 AF_video 1 25 39 -3.51 -0.2 340 485;
#X obj 71 239 AF_video 3 27 41 1.17 -0.2 972 485;
#X obj 71 293 AF_video 5 29 43 5.85 -0.2 1604 485;
#X obj 71 212 AF_video 2 26 40 -1.17 -0.2 656 485;
