#N canvas 208 655 398 287 10;
#X declare -path armoire;
#N canvas 246 122 1274 793 gestSon 0;
#X obj 105 -340 adc~ 1 2;
#X obj 31 -324 env~;
#X obj 682 255 dac~ 1 2;
#X obj 126 293 hsl 128 15 0 20000 0 0 empty empty empty -2 -8 0 10
-262144 -1 -1 0 1;
#X floatatom 489 -284 5 0 0 0 - - -;
#X text 528 -283 ms de delais;
#X obj 422 -203 delread~ gauche;
#X obj 489 -181 delread~ droite;
#X obj 104 -273 delwrite~ gauche 20000;
#X obj 157 -246 delwrite~ droite 20000;
#X obj 771 -79 readanysf~;
#X obj 423 -76 *~;
#X obj 488 -64 *~;
#X obj 755 -46 *~;
#X obj 803 -41 *~;
#X obj 771 -347 netreceive 45000;
#X obj 507 -159 catch~ env-live;
#X obj 1022 -28 line~;
#X obj 820 -110 catch~ env-clip;
#X msg 1022 -55 \$1 2000;
#X floatatom 1022 -81 5 0 0 0 - - -;
#X obj 1022 -244 tgl 15 0 empty empty empty 17 7 0 10 -262144 -1 -1
0 1;
#X obj 1022 -220 t f f;
#X obj 1022 -301 r fin-clip;
#X obj 1022 -1 throw~ env-live;
#X obj 30 -133 loadbang;
#X msg 30 -106 \; pd dsp 1;
#X obj 1022 -172 sel 0 1;
#X msg 1022 -138 1;
#X msg 1062 -138 0;
#X obj 1059 -261 init 0;
#X obj 30 -66 declare -path armoire;
#X obj 335 -324 env~;
#X obj 121 132 vsl 15 128 0 100 0 0 empty empty empty 0 -9 0 10 -262144
-1 -1 4074 1;
#X obj 172 132 vsl 15 128 0 100 0 0 empty empty empty 0 -9 0 10 -262144
-1 -1 4117 1;
#X obj 190 132 vsl 15 128 0 100 0 0 empty empty empty 0 -9 0 10 -262144
-1 -1 526 1;
#X obj 138 132 vsl 15 128 0 100 0 0 empty empty empty 0 -9 0 10 -262144
-1 -1 526 1;
#X obj 225 132 vsl 15 128 0 100 0 0 empty empty empty 0 -9 0 10 -262144
-1 -1 0 1;
#X obj 242 132 vsl 15 128 0 100 0 0 empty empty empty 0 -9 0 10 -262144
-1 -1 0 1;
#X text 175 270 Out;
#X text 125 271 Mic;
#X text 222 270 Video;
#X obj 1141 -28 line~;
#X msg 1141 -54 \$1 2000;
#X floatatom 1141 -203 5 0 0 0 - - -;
#X obj 1141 -1 throw~ env-clip;
#X text 1120 -265 0: live;
#X text 1120 -255 1: clip;
#X msg 951 -261 0;
#X msg 819 -191 play;
#X msg 985 -298 1;
#X obj 771 -320 route choix play stop;
#X obj 598 166 *~ 1;
#X obj 637 166 *~ 1;
#X obj 597 257 env~;
#X obj 637 257 env~;
#X obj 840 -36 env~;
#X obj 890 -36 env~;
#X obj 819 -255 t b b b;
#X msg 842 -167 stop;
#X obj 719 410 netsend;
#X msg 762 350 connect localhost 45100;
#X obj 762 296 loadbang;
#X msg 597 338 send son-G \$1;
#X msg 637 311 send son-D \$1;
#X obj 986 25 env~;
#X floatatom 986 52 5 0 0 0 - - -;
#X obj 986 103 sel 100;
#N canvas 3 77 437 121 infos 0;
#X text 28 27 Ce patch est le fruit du dévelopement du Labomedia à
Orléans --> http://labomedia.org;
#X text 27 58 Copyright Labomedia 2013 publié sous les termes de la
license GPL v3.0;
#X restore 1106 234 pd infos;
#X obj 986 76 change;
#X obj 762 323 del 6000;
#X obj 637 377 spigot;
#X floatatom 719 432 0 0 0 0 - - -;
#X msg 769 381 disconnect;
#X obj 673 360 tgl 15 0 empty empty empty 17 7 0 10 -262144 -1 -1 1
1;
#X connect 0 0 1 0;
#X connect 0 0 8 0;
#X connect 0 1 9 0;
#X connect 0 1 32 0;
#X connect 1 0 33 0;
#X connect 3 0 4 0;
#X connect 4 0 6 0;
#X connect 4 0 7 0;
#X connect 6 0 11 0;
#X connect 7 0 12 0;
#X connect 10 0 13 0;
#X connect 10 0 56 0;
#X connect 10 1 14 0;
#X connect 10 1 57 0;
#X connect 11 0 52 0;
#X connect 12 0 53 0;
#X connect 13 0 52 0;
#X connect 14 0 53 0;
#X connect 15 0 51 0;
#X connect 16 0 11 1;
#X connect 16 0 12 1;
#X connect 17 0 24 0;
#X connect 17 0 65 0;
#X connect 18 0 14 1;
#X connect 18 0 13 1;
#X connect 19 0 17 0;
#X connect 20 0 19 0;
#X connect 21 0 22 0;
#X connect 22 0 27 0;
#X connect 22 1 44 0;
#X connect 23 0 21 0;
#X connect 25 0 26 0;
#X connect 27 0 28 0;
#X connect 27 1 29 0;
#X connect 28 0 20 0;
#X connect 29 0 20 0;
#X connect 30 0 21 0;
#X connect 32 0 36 0;
#X connect 42 0 45 0;
#X connect 43 0 42 0;
#X connect 44 0 43 0;
#X connect 48 0 21 0;
#X connect 49 0 10 0;
#X connect 50 0 21 0;
#X connect 51 0 10 0;
#X connect 51 1 58 0;
#X connect 51 2 48 0;
#X connect 52 0 2 0;
#X connect 52 0 54 0;
#X connect 53 0 2 1;
#X connect 53 0 55 0;
#X connect 54 0 34 0;
#X connect 54 0 63 0;
#X connect 55 0 35 0;
#X connect 55 0 64 0;
#X connect 56 0 37 0;
#X connect 57 0 38 0;
#X connect 58 0 49 0;
#X connect 58 1 59 0;
#X connect 58 2 50 0;
#X connect 59 0 10 0;
#X connect 60 0 72 0;
#X connect 61 0 60 0;
#X connect 62 0 70 0;
#X connect 63 0 71 0;
#X connect 64 0 71 0;
#X connect 65 0 66 0;
#X connect 66 0 69 0;
#X connect 67 0 59 0;
#X connect 69 0 67 0;
#X connect 70 0 61 0;
#X connect 71 0 60 0;
#X connect 72 0 74 0;
#X connect 73 0 60 0;
#X connect 74 0 71 1;
#X coords 0 -1 1 1 180 220 1 100 100;
#X restore 109 30 pd gestSon;
