#N canvas 1137 77 719 909 10;
#X obj 124 100 pix_image;
#X obj 124 127 pix_texture;
#X obj 47 841 rectangle;
#X obj 107 817 expr $f1*9/16;
#X obj 77 793 t f f;
#X floatatom 77 771 5 0 0 0 - - -;
#X floatatom 104 689 5 0 0 0 - - -;
#X floatatom 161 689 5 0 0 0 - - -;
#X obj 229 841 rectangle;
#X obj 289 817 expr $f1*9/16;
#X obj 259 793 t f f;
#X floatatom 259 771 5 0 0 0 - - -;
#X floatatom 284 689 5 0 0 0 - - -;
#X floatatom 339 689 5 0 0 0 - - -;
#X obj 124 73 gemhead 100;
#X obj 124 154 alpha;
#X obj 229 376 separator;
#X obj 47 381 separator;
#X obj 47 713 translateXYZ -2.75 2.21 0;
#X obj 229 713 translateXYZ 2.75 2.21 0;
#X obj 77 740 init 2.37;
#X obj 259 740 init 2.37;
#X obj 445 254 text2d;
#X floatatom 502 144 5 0 0 0 - - -;
#X floatatom 559 145 5 0 0 0 - - -;
#X floatatom 582 240 5 0 0 0 - - -;
#X obj 445 110 gemhead;
#X msg 453 229 text \$1;
#X obj 445 201 color 1 1 1;
#X obj 136 427 line;
#X obj 47 598 colorRGB;
#X obj 136 467 vsl 15 128 0 1 0 0 empty empty empty 0 -9 0 10 -262144
-1 -1 0 1;
#X obj 229 586 colorRGB;
#X obj 371 455 vsl 15 128 0 1 0 0 empty empty empty 0 -9 0 10 -262144
-1 -1 0 1;
#X obj 371 418 line;
#X obj 445 173 translateXYZ 4.52 -1.63 0;
#X obj 582 214 init 14;
#X obj 495 842 rectangle;
#X obj 555 818 expr $f1*9/16;
#X obj 525 794 t f f;
#X floatatom 525 772 5 0 0 0 - - -;
#X floatatom 550 690 5 0 0 0 - - -;
#X floatatom 605 690 5 0 0 0 - - -;
#X obj 495 377 separator;
#X obj 525 741 init 1.08;
#X obj 124 248 t a a a;
#X msg 136 390 \$1 500;
#X msg 371 381 \$1 500;
#X obj 495 714 translateXYZ 5.85 -0.2 0;
#X obj 192 -11 ctlin 23;
#X msg 257 83 open ../image/\$1.png;
#X obj 192 16 fleches 1552 755 69;
#X obj 386 -26 shell;
#X floatatom 386 2 5 0 0 0 - - -;
#X obj 386 -136 loadbang;
#X text 398 -75 dans le dossier video;
#X text 397 -88 Récupère le nb de fichier;
#X obj 386 -109 del 1500;
#X obj -30 335 s vers_alias;
#X obj -30 335 s vers_alias;
#X obj 495 335 s vers_alias;
#X obj 495 335 s vers_alias;
#X msg 495 308 14;
#X obj 136 291 cartouche 4.92 1604 743 -1.65 6 14;
#X msg -30 308 6;
#X obj 575 -43 r cam;
#X msg 386 -53 ls image/ | wc -l &;
#X obj 564 48 print;
#X msg 297 -78 ls;
#X connect 0 0 1 0;
#X connect 1 0 15 0;
#X connect 3 0 2 2;
#X connect 4 0 2 1;
#X connect 4 1 3 0;
#X connect 5 0 4 0;
#X connect 6 0 18 1;
#X connect 7 0 18 2;
#X connect 9 0 8 2;
#X connect 10 0 8 1;
#X connect 10 1 9 0;
#X connect 11 0 10 0;
#X connect 12 0 19 1;
#X connect 13 0 19 2;
#X connect 14 0 0 0;
#X connect 15 0 45 0;
#X connect 16 0 32 0;
#X connect 17 0 30 0;
#X connect 18 0 2 0;
#X connect 19 0 8 0;
#X connect 20 0 5 0;
#X connect 21 0 11 0;
#X connect 23 0 35 1;
#X connect 24 0 35 2;
#X connect 25 0 22 1;
#X connect 26 0 35 0;
#X connect 27 0 22 0;
#X connect 28 0 22 0;
#X connect 29 0 31 0;
#X connect 30 0 18 0;
#X connect 31 0 30 4;
#X connect 32 0 19 0;
#X connect 33 0 32 4;
#X connect 34 0 33 0;
#X connect 35 0 28 0;
#X connect 36 0 25 0;
#X connect 38 0 37 2;
#X connect 39 0 37 1;
#X connect 39 1 38 0;
#X connect 40 0 39 0;
#X connect 41 0 48 1;
#X connect 42 0 48 2;
#X connect 43 0 48 0;
#X connect 44 0 40 0;
#X connect 45 0 17 0;
#X connect 45 1 16 0;
#X connect 45 2 43 0;
#X connect 46 0 29 0;
#X connect 47 0 34 0;
#X connect 48 0 37 0;
#X connect 49 0 51 0;
#X connect 50 0 0 0;
#X connect 51 1 50 0;
#X connect 51 1 27 0;
#X connect 52 0 53 0;
#X connect 52 0 67 0;
#X connect 53 0 51 1;
#X connect 54 0 57 0;
#X connect 57 0 66 0;
#X connect 62 0 60 0;
#X connect 63 0 46 0;
#X connect 63 0 64 0;
#X connect 63 1 47 0;
#X connect 63 1 62 0;
#X connect 64 0 58 0;
#X connect 65 0 52 0;
#X connect 65 0 67 0;
#X connect 66 0 52 0;
#X connect 68 0 52 0;
