#N canvas 521 262 1321 707 10;
#X obj 144 469 text2d;
#X obj 301 129 list trim;
#X obj 266 489 bng 15 250 50 0 empty empty empty 17 7 0 10 -262144
-1 -1;
#X msg 410 -71 next;
#X msg 301 -71 prev;
#X floatatom 410 16 5 0 0 0 - - -, f 5;
#X obj 301 102 list append;
#X msg 301 70 text;
#X obj 301 43 t b a;
#X obj 501 55 text2d;
#X floatatom 558 -50 5 0 0 0 - - -, f 5;
#X floatatom 615 -49 5 0 0 0 - - -, f 5;
#X floatatom 628 41 5 0 0 0 - - -, f 5;
#X obj 501 -89 gemhead;
#X msg 509 30 text \$1;
#X obj 501 2 color 1 1 1;
#X floatatom 187 398 5 0 0 0 - - -, f 5;
#X floatatom 230 398 5 0 0 0 - - -, f 5;
#X obj 144 422 translateXYZ -5 1 0;
#X obj 452 463 text2d;
#X floatatom 497 404 5 0 0 0 - - -, f 5;
#X floatatom 543 404 5 0 0 0 - - -, f 5;
#X obj 452 428 translateXYZ 0.5 1 0;
#X obj 144 218 gemhead 200;
#X obj 452 218 gemhead 200;
#X obj 452 355 colorRGB 1 0 0;
#X obj 144 355 colorRGB 1 0 0;
#X obj 1058 28 vsl 15 128 0 1 0 0 empty empty empty 0 -9 0 10 -262144
-1 -1 0 1;
#X obj 1058 -9 line;
#X obj 823 29 vsl 15 128 0 1 0 0 empty empty empty 0 -9 0 10 -262144
-1 -1 12700 1;
#X obj 823 -8 line;
#X obj 202 -68 bng 15 250 50 0 empty empty empty 17 7 0 10 -262144
-1 -1;
#X obj 285 487 loadbang;
#X msg 221 -34 next;
#X obj 221 -70 loadbang;
#X obj 628 15 init 14;
#X obj 756 540 text2d;
#X floatatom 813 400 5 0 0 0 - - -, f 5;
#X floatatom 870 400 5 0 0 0 - - -, f 5;
#X obj 756 214 gemhead 200;
#X obj 756 351 colorRGB 1 0 0;
#X floatatom 845 526 5 0 0 0 - - -, f 5;
#X obj 756 424 translateXYZ 4.83 -0.72 0;
#X msg 823 -52 \$1 500;
#X msg 1058 -46 \$1 500;
#X obj 845 482 loadbang;
#X msg 845 504 9;
#X obj 501 -26 translateXYZ 4.52 -2.25 0;
#X obj 301 -106 fleches 1552 838;
#X obj 301 -133 ctlin 24;
#X obj 301 -17 coll ../titrage/titrage.txt;
#C restore;
#X obj 823 -73 cartouche 4.92 1604 826 -2.26 7 15;
#X obj 717 -29 s vers_alias;
#X obj 717 -29 s vers_alias;
#X obj 1113 -29 s vers_alias;
#X obj 1113 -29 s vers_alias;
#X msg 1113 -56 15;
#X msg 717 -56 7;
#X msg 285 523 justify left base \, font cassannet-regular.woff;
#X connect 1 0 0 0;
#X connect 1 0 19 0;
#X connect 1 0 36 0;
#X connect 2 0 58 0;
#X connect 3 0 50 0;
#X connect 4 0 50 0;
#X connect 5 0 14 0;
#X connect 6 0 1 0;
#X connect 7 0 6 0;
#X connect 8 0 7 0;
#X connect 8 1 6 1;
#X connect 10 0 47 1;
#X connect 11 0 47 2;
#X connect 12 0 9 1;
#X connect 13 0 47 0;
#X connect 14 0 9 0;
#X connect 15 0 9 0;
#X connect 16 0 18 1;
#X connect 17 0 18 2;
#X connect 18 0 0 0;
#X connect 20 0 22 1;
#X connect 21 0 22 2;
#X connect 22 0 19 0;
#X connect 23 0 26 0;
#X connect 24 0 25 0;
#X connect 25 0 22 0;
#X connect 26 0 18 0;
#X connect 27 0 25 4;
#X connect 28 0 27 0;
#X connect 29 0 26 4;
#X connect 30 0 29 0;
#X connect 31 0 33 0;
#X connect 32 0 58 0;
#X connect 33 0 50 0;
#X connect 34 0 33 0;
#X connect 35 0 12 0;
#X connect 37 0 42 1;
#X connect 38 0 42 2;
#X connect 39 0 40 0;
#X connect 40 0 42 0;
#X connect 41 0 36 1;
#X connect 42 0 36 0;
#X connect 43 0 30 0;
#X connect 44 0 28 0;
#X connect 45 0 46 0;
#X connect 46 0 41 0;
#X connect 47 0 15 0;
#X connect 48 0 4 0;
#X connect 48 2 3 0;
#X connect 49 0 48 0;
#X connect 50 0 8 0;
#X connect 50 1 5 0;
#X connect 51 0 43 0;
#X connect 51 0 57 0;
#X connect 51 1 44 0;
#X connect 51 1 56 0;
#X connect 56 0 54 0;
#X connect 57 0 52 0;
#X connect 58 0 0 0;
#X connect 58 0 19 0;
#X connect 58 0 36 0;
#X coords 0 707 1 706 85 200 0;
