#N canvas 1 89 1278 785 10;
#X obj 21 419 rectangle;
#X obj 81 393 expr $f1*9/16;
#X obj 51 364 t f f;
#X floatatom 51 342 5 0 0 0 - - -, f 5;
#X floatatom 66 264 5 0 0 0 - - -, f 5;
#X floatatom 112 264 5 0 0 0 - - -, f 5;
#X obj 21 288 translateXYZ \$4 \$5 0;
#X obj 264 30 r X;
#X obj 639 38 r Y;
#X obj 768 36 r X;
#X obj 1115 36 r Y;
#X obj 198 68 r bt-G;
#X obj 198 95 spigot;
#X obj 198 121 sel 1;
#X obj 198 522 \$1;
#X obj 685 66 r bt-G;
#X obj 685 93 spigot;
#X obj 685 119 sel 1;
#X obj 685 532 \$1;
#X obj 685 556 s choix-video-pre;
#X obj 198 546 s choix-video-live;
#X obj 221 356 gemhead;
#X obj 198 212 t b b b;
#X msg 221 301 1;
#X obj 231 329 r icone-live;
#X msg 244 234 0;
#X obj 244 258 s icone-live;
#X obj 708 353 gemhead;
#X obj 685 209 t b b b;
#X msg 708 298 1;
#X msg 731 231 0;
#X obj 718 326 r icone-pre;
#X obj 731 255 s icone-pre;
#X obj 218 148 r key;
#X obj 218 175 sel \$2;
#X obj 705 145 r key;
#X obj 705 172 sel \$3;
#X obj 21 137 separator;
#X obj 344 410 color 1 0 0;
#X obj 344 441 square 0.07;
#X obj 807 427 square 0.07;
#X floatatom 394 349 5 0 0 0 - - -, f 5;
#X obj 394 296 init \$4;
#X floatatom 857 346 5 0 0 0 - - -, f 5;
#X floatatom 444 349 5 0 0 0 - - -, f 5;
#X floatatom 907 346 5 0 0 0 - - -, f 5;
#X obj 394 272 bng 15 250 50 0 empty empty empty 17 7 0 10 -262144
-1 -1;
#X obj 471 546 text2d;
#X floatatom 528 436 5 0 0 0 - - -, f 5;
#X floatatom 585 437 5 0 0 0 - - -, f 5;
#X floatatom 608 532 5 0 0 0 - - -, f 5;
#X msg 479 521 text live;
#X obj 471 407 gemhead;
#X obj 922 556 text2d;
#X floatatom 979 446 5 0 0 0 - - -, f 5;
#X floatatom 1036 446 5 0 0 0 - - -, f 5;
#X floatatom 1059 542 5 0 0 0 - - -, f 5;
#X obj 922 503 color 0 0 0;
#X obj 922 417 gemhead;
#X obj 857 269 bng 15 250 50 0 empty empty empty 17 7 0 10 -262144
-1 -1;
#X msg 930 531 text pre;
#X obj 857 320 + 0.18;
#X obj 471 493 color 0 0 0;
#X obj 21 89 r video-\$1;
#X obj 857 293 init \$4;
#X obj 608 504 init 13;
#X obj 1059 514 init 13;
#X obj 313 107 notein;
#X floatatom 313 171 5 0 0 0 - - -, f 5;
#X obj 313 195 sel \$1;
#X floatatom 812 168 5 0 0 0 - - -, f 5;
#X obj 812 192 sel;
#X obj 877 175 + 8;
#X obj 877 153 init \$1;
#X text 215 -4 n° video / touche clavier live / touche clavier pre
/;
#X text 593 -4 video coord Gem X / video coord Gem Y / video coord
png X;
#X text 998 -4 / video coord png X;
#X text 129 -4 Arguments :;
#X obj 51 317 init 1.08;
#X obj 264 65 expr $f1 > \$6 & $f1 < \$6+140 & $f2 > \$7+164+12 & $f2
< \$7+164+12+39;
#X obj 768 63 expr $f1 > \$6+140+12 & $f1 < \$6+140+12+140 & $f2 >
\$7+164+12 & $f2 < \$7+164+12+39;
#X floatatom 469 309 5 0 0 0 - - -, f 5;
#X obj 394 323 - 0.93;
#X floatatom 979 306 5 0 0 0 - - -, f 5;
#X floatatom 560 296 5 0 0 0 - - -, f 5;
#X obj 528 340 + 0.4;
#X floatatom 1055 323 5 0 0 0 - - -, f 5;
#X obj 471 465 translateXYZ 0.59 -1.01 0;
#X obj 922 475 translateXYZ 0.59 -1.01 0;
#X obj 979 337 + 0.45;
#X obj 344 373 translateXYZ 0 -1.03 0;
#X obj 807 370 translateXYZ 0 -1.03 0;
#X obj 1123 396 text2d;
#X floatatom 1166 186 5 0 0 0 - - -, f 5;
#X floatatom 1209 187 5 0 0 0 - - -, f 5;
#X floatatom 1260 382 5 0 0 0 - - -, f 5;
#X obj 1123 157 gemhead;
#X obj 1123 243 color 1 1 1;
#X obj 1260 354 13;
#X obj 1260 245 loadbang;
#X obj 1131 327 \$1;
#X msg 1131 371 text \$1;
#X obj 1131 349 + 1;
#X obj 1123 215 translateXYZ \$4 0 0;
#X obj 1209 143 init \$5;
#X obj 1209 165 + 0.7;
#X obj 807 396 color 0 1 0;
#X obj 744 590 init \$1;
#X obj 744 617 sel 4;
#X obj 664 689 sel 0 1;
#X obj 664 661 spigot 0;
#X msg 744 644 1;
#X obj 664 634 r loop;
#X msg 687 745 text live-loop;
#X obj 313 144 stripnote;
#X obj 812 96 notein;
#X obj 812 133 stripnote;
#X connect 1 0 0 2;
#X connect 2 0 0 1;
#X connect 2 1 1 0;
#X connect 3 0 2 0;
#X connect 4 0 6 1;
#X connect 5 0 6 2;
#X connect 6 0 0 0;
#X connect 7 0 79 0;
#X connect 8 0 79 1;
#X connect 9 0 80 0;
#X connect 10 0 80 1;
#X connect 11 0 12 0;
#X connect 12 0 13 0;
#X connect 13 0 22 0;
#X connect 14 0 20 0;
#X connect 15 0 16 0;
#X connect 16 0 17 0;
#X connect 17 0 28 0;
#X connect 18 0 19 0;
#X connect 21 0 90 0;
#X connect 22 0 14 0;
#X connect 22 1 23 0;
#X connect 22 2 25 0;
#X connect 23 0 21 0;
#X connect 24 0 21 0;
#X connect 25 0 26 0;
#X connect 27 0 91 0;
#X connect 28 0 18 0;
#X connect 28 1 29 0;
#X connect 28 2 30 0;
#X connect 29 0 27 0;
#X connect 30 0 32 0;
#X connect 31 0 27 0;
#X connect 33 0 34 0;
#X connect 34 0 22 0;
#X connect 35 0 36 0;
#X connect 36 0 28 0;
#X connect 37 0 6 0;
#X connect 38 0 39 0;
#X connect 41 0 90 1;
#X connect 42 0 82 0;
#X connect 43 0 91 1;
#X connect 44 0 90 2;
#X connect 45 0 91 2;
#X connect 46 0 42 0;
#X connect 48 0 87 1;
#X connect 49 0 87 2;
#X connect 50 0 47 1;
#X connect 51 0 47 0;
#X connect 52 0 87 0;
#X connect 54 0 88 1;
#X connect 55 0 88 2;
#X connect 56 0 53 1;
#X connect 57 0 53 0;
#X connect 58 0 88 0;
#X connect 59 0 64 0;
#X connect 60 0 53 0;
#X connect 61 0 43 0;
#X connect 61 0 89 0;
#X connect 62 0 47 0;
#X connect 63 0 37 0;
#X connect 64 0 61 0;
#X connect 65 0 50 0;
#X connect 65 0 51 0;
#X connect 66 0 56 0;
#X connect 66 0 60 0;
#X connect 67 0 114 0;
#X connect 67 1 114 1;
#X connect 68 0 69 0;
#X connect 69 0 22 0;
#X connect 70 0 71 0;
#X connect 71 0 28 0;
#X connect 72 0 71 1;
#X connect 73 0 72 0;
#X connect 78 0 3 0;
#X connect 79 0 12 1;
#X connect 80 0 16 1;
#X connect 81 0 82 1;
#X connect 82 0 41 0;
#X connect 82 0 85 0;
#X connect 83 0 61 1;
#X connect 84 0 85 1;
#X connect 85 0 48 0;
#X connect 86 0 89 1;
#X connect 87 0 62 0;
#X connect 88 0 57 0;
#X connect 89 0 54 0;
#X connect 90 0 38 0;
#X connect 91 0 106 0;
#X connect 93 0 103 1;
#X connect 94 0 103 2;
#X connect 95 0 92 1;
#X connect 96 0 103 0;
#X connect 97 0 92 0;
#X connect 98 0 95 0;
#X connect 99 0 98 0;
#X connect 99 0 100 0;
#X connect 100 0 102 0;
#X connect 101 0 92 0;
#X connect 102 0 101 0;
#X connect 103 0 97 0;
#X connect 104 0 105 0;
#X connect 105 0 94 0;
#X connect 106 0 40 0;
#X connect 107 0 108 0;
#X connect 108 0 111 0;
#X connect 109 0 51 0;
#X connect 109 1 113 0;
#X connect 110 0 109 0;
#X connect 111 0 110 1;
#X connect 112 0 110 0;
#X connect 113 0 47 0;
#X connect 114 0 68 0;
#X connect 115 0 116 0;
#X connect 115 1 116 1;
#X connect 116 0 70 0;
#X coords 0 785 1 784 90 70 0;
