#N canvas 1281 57 1357 1020 10;
#N canvas 3 78 450 300 (subpatch) 0;
#X array LedColor 8 float 3;
#A 0 0 1 0 0 0 0 2 0;
#X coords 0 127 7 0 200 140 1 0 0;
#X restore 60 168 graph;
#N canvas 3 78 450 300 (subpatch) 0;
#X array MapPad 16 float 3;
#A 0 0 2 8 10 1 3 9 11 4 6 12 14 5 7 13 15;
#X coords 0 20 15 0 200 140 1 0 0;
#X restore 65 431 graph;
#X obj 296 -49 hradio 15 1 0 16 empty empty empty 0 -8 0 10 -262144
-1 -1 4;
#X obj 528 352 - 8;
#X obj 454 280 tabread MapPad;
#X obj 454 307 moses 8;
#X text 545 -51 n° du pad;
#X floatatom 576 -34 5 0 0 0 - - -, f 5;
#X obj 296 -141 notein;
#X obj 1042 67 sel 0 1 2 3 4 5 6 7;
#X msg 1125 153 0 \, 8 \, 0 \, 0 \, 0 \, 8 \, 0 \, 0;
#X obj 1257 384 s colorPad-\$0;
#X msg 1139 126 0 \, 0 \, 0 \, 8 \, 0 \, 0 \, 0 \, 0;
#X msg 1111 180 0 \, 0 \, 0 \, 1 \, 0 \, 0 \, 0 \, 0;
#X msg 1097 207 0 \, 1 \, 0 \, 0 \, 0 \, 0 \, 0 \, 0 \,;
#X msg 1083 234 0 \, 0 \, 8 \, 0 \, 0 \, 0 \, 8 \, 0 \,;
#X msg 1069 261 8 \, 0 \, 0 \, 0 \, 8 \, 0 \, 0 \, 0 \,;
#X msg 1055 288 0 \, 0 \, 1 \, 0 \, 0 \, 0 \, 0 \, 0 \,;
#X msg 1042 315 1 \, 0 \, 0 \, 0 \, 0 \, 0 \, 0 \, 0 \,;
#X text 1043 51 couleur;
#X msg 1100 661 247;
#X obj 1144 796 tabread LedColor;
#X obj 1144 688 until;
#X obj 1220 742 + 1;
#X obj 1220 769 mod 8;
#X obj 1189 858 midiout;
#X msg 1144 661 4;
#X msg 1189 661 240 \, 0 \, 1 \, 97 \, 11 \, 4 \, 0 \, 0 \, 0 \, 0
;
#X obj 1125 619 t b b b;
#X obj 1144 725 4;
#X obj 1125 588 bng 15 250 50 0 empty empty empty 17 7 0 10 -262144
-1 -1;
#X msg 367 699 240 \, 0 \, 1 \, 97 \, 11 \, 4;
#X msg 271 699 247;
#X obj 296 657 t b b b;
#X obj 319 837 tabread LedColor;
#X obj 319 726 until;
#X msg 319 699 8;
#X obj 319 763 0;
#X obj 398 780 + 1;
#X obj 398 807 mod 8;
#X obj 367 902 midiout;
#X text 158 657 lit toute la série;
#N canvas 33 372 775 564 eraseTop 0;
#X obj 117 157 tabwrite LedColor;
#X msg 117 110 0;
#X obj 117 -77 inlet;
#X obj 117 -49 t b b;
#X obj 559 -85 0;
#X obj 638 -68 + 1;
#X obj 638 -41 mod 2;
#X obj 117 56 t f f;
#X msg 117 24 0 \, 2;
#X obj 559 143 tabwrite LedColor;
#X msg 559 96 0;
#X obj 559 42 t f f;
#X msg 559 10 0 \, 1 \, 2 \, 3 \, 4 \, 5 \, 6 \, 7;
#X obj 286 157 tabwrite LedColor;
#X obj 286 22 tabread LedColor;
#X obj 286 -5 t f f;
#X floatatom 286 76 5 0 0 0 - - -, f 5;
#X obj 286 100 * 8;
#X obj 286 49 div 8;
#X msg 286 -32 1 \, 3;
#X obj 18 -66 r eraseTop;
#X text 174 -71 sans toucher au bas;
#X text 174 -84 efface les 6 permieres cellules du haut;
#X connect 1 0 0 0;
#X connect 2 0 3 0;
#X connect 3 0 8 0;
#X connect 3 1 19 0;
#X connect 4 0 5 0;
#X connect 5 0 6 0;
#X connect 6 0 4 1;
#X connect 7 0 1 0;
#X connect 7 1 0 1;
#X connect 8 0 7 0;
#X connect 10 0 9 0;
#X connect 11 0 10 0;
#X connect 11 1 9 1;
#X connect 12 0 11 0;
#X connect 14 0 18 0;
#X connect 15 0 14 0;
#X connect 15 1 13 1;
#X connect 16 0 17 0;
#X connect 17 0 13 0;
#X connect 18 0 16 0;
#X connect 19 0 15 0;
#X connect 20 0 3 0;
#X restore 657 485 pd eraseTop;
#N canvas 338 108 548 352 eraseBottom 0;
#X obj 135 212 tabwrite LedColor;
#X msg 135 142 0;
#X obj 135 14 inlet;
#X obj 15 40 r eraseBottom;
#X obj 135 57 t b b;
#X obj 306 263 tabwrite LedColor;
#X obj 306 128 tabread LedColor;
#X obj 306 101 t f f;
#X floatatom 306 182 5 0 0 0 - - -, f 5;
#X obj 306 206 * 8;
#X obj 306 155 div 8;
#X text 185 8 efface les 6 permieres cellules du bas;
#X text 185 21 sans toucher au haut;
#X msg 135 84 4 \, 6;
#X msg 306 74 5 \, 7;
#X obj 135 111 t b f;
#X connect 1 0 0 0;
#X connect 2 0 4 0;
#X connect 3 0 4 0;
#X connect 4 0 13 0;
#X connect 4 1 14 0;
#X connect 6 0 10 0;
#X connect 7 0 6 0;
#X connect 7 1 5 1;
#X connect 8 0 9 0;
#X connect 9 0 5 0;
#X connect 10 0 8 0;
#X connect 13 0 15 0;
#X connect 14 0 7 0;
#X connect 15 0 1 0;
#X connect 15 1 0 1;
#X restore 680 458 pd eraseBottom;
#X obj 536 657 tabwrite LedColor;
#X obj 454 166 t f f;
#X obj 657 354 > 7;
#X obj 657 381 sel 0 1;
#X obj 454 400 t b f;
#X obj 454 640 t b f;
#X obj 528 399 t b f;
#X obj 454 548 f;
#X obj 528 549 f;
#N canvas 39 185 1274 709 exeption 0;
#X obj 76 333 tabwrite LedColor;
#X obj 44 174 tabread LedColor;
#X floatatom 44 228 5 0 0 0 - - -, f 5;
#X obj 44 252 * 8;
#X obj 44 201 div 8;
#X msg 44 82 1;
#X msg 92 82 3;
#X obj 44 305 t b f;
#X obj 490 597 outlet;
#X obj 418 162 t f f;
#X obj 418 208 tabread LedColor;
#X obj 426 465 tabwrite LedColor;
#X obj 394 437 t b f;
#X msg 418 97 1;
#X msg 466 97 3;
#X obj 44 147 t f f b;
#X obj 202 164 s eraseTop;
#X obj 518 -59 sel 4 5 6 7 12 13 14 15;
#X obj 737 346 tabwrite LedColor;
#X obj 705 187 tabread LedColor;
#X floatatom 705 241 5 0 0 0 - - -, f 5;
#X obj 705 265 * 8;
#X obj 705 214 div 8;
#X obj 705 318 t b f;
#X obj 1078 175 t f f;
#X obj 1078 221 tabread LedColor;
#X obj 1110 288 div 8;
#X obj 1085 497 tabwrite LedColor;
#X obj 1053 469 t b f;
#X obj 705 160 t f f b;
#X msg 705 95 5;
#X msg 753 95 7;
#X msg 1078 110 5;
#X msg 1126 110 7;
#X obj 518 -86 inlet;
#X obj 821 -42 outlet;
#X obj 863 177 s eraseBottom;
#X obj 1110 341 sel 1;
#X obj 1110 315 == 0;
#X msg 1142 407 0;
#X obj 450 270 div 8;
#X obj 450 323 sel 1;
#X obj 450 297 == 0;
#X msg 482 388 0;
#X msg 450 350 8;
#X obj 1078 254 t f f;
#X obj 1053 296 mod 8;
#X obj 1053 424 +;
#X obj 394 276 mod 8;
#X obj 394 405 +;
#X obj 418 235 t f f;
#X obj 44 278 + 1;
#X obj 705 291 + 2;
#X text 734 291 vert;
#X msg 1110 368 16;
#X text 1148 368 x8 vert;
#X connect 1 0 4 0;
#X connect 2 0 3 0;
#X connect 3 0 51 0;
#X connect 4 0 2 0;
#X connect 5 0 15 0;
#X connect 6 0 15 0;
#X connect 7 0 8 0;
#X connect 7 1 0 0;
#X connect 9 0 10 0;
#X connect 9 1 11 1;
#X connect 10 0 50 0;
#X connect 12 0 8 0;
#X connect 12 1 11 0;
#X connect 13 0 9 0;
#X connect 14 0 9 0;
#X connect 15 0 1 0;
#X connect 15 1 0 1;
#X connect 15 2 16 0;
#X connect 17 0 5 0;
#X connect 17 1 6 0;
#X connect 17 2 13 0;
#X connect 17 3 14 0;
#X connect 17 4 30 0;
#X connect 17 5 31 0;
#X connect 17 6 32 0;
#X connect 17 7 33 0;
#X connect 17 8 35 0;
#X connect 19 0 22 0;
#X connect 20 0 21 0;
#X connect 21 0 52 0;
#X connect 22 0 20 0;
#X connect 23 0 8 0;
#X connect 23 1 18 0;
#X connect 24 0 25 0;
#X connect 24 1 27 1;
#X connect 25 0 45 0;
#X connect 26 0 38 0;
#X connect 28 0 8 0;
#X connect 28 1 27 0;
#X connect 29 0 19 0;
#X connect 29 1 18 1;
#X connect 29 2 36 0;
#X connect 30 0 29 0;
#X connect 31 0 29 0;
#X connect 32 0 24 0;
#X connect 33 0 24 0;
#X connect 34 0 17 0;
#X connect 37 0 54 0;
#X connect 37 1 39 0;
#X connect 38 0 37 0;
#X connect 39 0 47 1;
#X connect 40 0 42 0;
#X connect 41 0 44 0;
#X connect 41 1 43 0;
#X connect 42 0 41 0;
#X connect 43 0 49 1;
#X connect 44 0 49 1;
#X connect 45 0 46 0;
#X connect 45 1 26 0;
#X connect 46 0 47 0;
#X connect 47 0 28 0;
#X connect 48 0 49 0;
#X connect 49 0 12 0;
#X connect 50 0 48 0;
#X connect 50 1 40 0;
#X connect 51 0 7 0;
#X connect 52 0 23 0;
#X connect 54 0 47 1;
#X restore 296 139 pd exeption image-titre;
#X obj 296 -83 stripnote;
#X obj 156 -141 r choix-video-live;
#X obj 74 -94 r choix-video-pre;
#X obj 74 -66 + 8;
#X msg 498 505 2;
#X msg 546 505 8;
#X msg 472 505 1;
#X msg 573 505 16;
#X text 604 505 x8;
#X obj 769 164 tabwrite LedColor;
#X obj 769 -4 loadbang;
#X obj 769 63 t b f;
#X msg 769 114 0;
#X msg 769 23 1 \, 3 \, 5 \, 8;
#X text 856 22 init image/titrage;
#X obj 175 55 r vers_alias;
#X obj 373 -83 r image;
#X obj 436 -83 r titrage;
#X obj 296 -2 change;
#X msg 354 39 set 69;
#X text 419 11 trick pour;
#X text 419 21 gestion on/off;
#X obj 354 15 del 10;
#X text 419 33 des pad 6 7 14 15;
#X text 419 43 car l'info est doublée;
#X connect 2 0 7 0;
#X connect 2 0 72 0;
#X connect 3 0 50 0;
#X connect 4 0 5 0;
#X connect 5 0 48 0;
#X connect 5 1 3 0;
#X connect 8 0 54 0;
#X connect 8 1 54 1;
#X connect 9 0 18 0;
#X connect 9 1 17 0;
#X connect 9 2 16 0;
#X connect 9 3 15 0;
#X connect 9 4 14 0;
#X connect 9 5 13 0;
#X connect 9 6 10 0;
#X connect 9 7 12 0;
#X connect 10 0 11 0;
#X connect 12 0 11 0;
#X connect 13 0 11 0;
#X connect 14 0 11 0;
#X connect 15 0 11 0;
#X connect 16 0 11 0;
#X connect 17 0 11 0;
#X connect 18 0 11 0;
#X connect 20 0 25 0;
#X connect 21 0 25 0;
#X connect 22 0 29 0;
#X connect 23 0 24 0;
#X connect 24 0 29 1;
#X connect 26 0 22 0;
#X connect 27 0 25 0;
#X connect 28 0 20 0;
#X connect 28 1 26 0;
#X connect 28 2 27 0;
#X connect 29 0 21 0;
#X connect 29 0 23 0;
#X connect 30 0 28 0;
#X connect 31 0 40 0;
#X connect 32 0 40 0;
#X connect 33 0 32 0;
#X connect 33 1 36 0;
#X connect 33 2 31 0;
#X connect 34 0 40 0;
#X connect 35 0 37 0;
#X connect 36 0 35 0;
#X connect 37 0 34 0;
#X connect 37 0 38 0;
#X connect 38 0 39 0;
#X connect 39 0 37 1;
#X connect 45 0 4 0;
#X connect 45 1 46 0;
#X connect 46 0 47 0;
#X connect 47 0 42 0;
#X connect 47 0 60 0;
#X connect 47 0 59 0;
#X connect 47 1 43 0;
#X connect 47 1 58 0;
#X connect 47 1 61 0;
#X connect 48 0 51 0;
#X connect 48 1 44 1;
#X connect 49 0 33 0;
#X connect 49 1 44 0;
#X connect 50 0 52 0;
#X connect 50 1 44 1;
#X connect 51 0 49 0;
#X connect 52 0 49 0;
#X connect 53 0 33 0;
#X connect 53 1 45 0;
#X connect 54 0 2 0;
#X connect 55 0 2 0;
#X connect 56 0 57 0;
#X connect 57 0 2 0;
#X connect 58 0 51 1;
#X connect 59 0 52 1;
#X connect 60 0 51 1;
#X connect 61 0 52 1;
#X connect 64 0 67 0;
#X connect 65 0 66 0;
#X connect 65 1 63 1;
#X connect 66 0 63 0;
#X connect 67 0 65 0;
#X connect 69 0 2 0;
#X connect 72 0 53 0;
#X connect 72 0 76 0;
#X connect 73 0 72 0;
#X connect 76 0 73 0;
