#N canvas 56 115 747 884 10;
#X obj 386 37 gemhead;
#X obj 386 64 pix_video;
#X msg 520 47 device \$1;
#X obj 103 81 pix_info;
#X floatatom 109 120 5 0 0 0 - - -, f 5;
#X floatatom 109 139 5 0 0 0 - - -, f 5;
#X obj 418 686 pix_record;
#X obj 438 568 r startStream;
#X msg 438 649 codec v4l2 \, file /dev/video\$1 \, record 1;
#X obj 438 595 \$1;
#X obj 438 622 + 10;
#X obj 386 101 pix_delay;
#X obj 500 84 r delay-video-\$1;
#X obj 110 163 vsl 15 128 0 250 0 0 empty empty empty 0 -9 0 10 -262144
-1 -1 0 1;
#X obj 110 317 s delay-video-\$1;
#X obj 406 155 pix_delay;
#X obj 520 10 \$1;
#X obj 520 -17 loadbang;
#X obj 418 513 pix_flip;
#X obj 430 457 loadbang;
#X obj 386 350 t a a;
#X obj 418 540 pix_texture;
#X obj 386 768 pix_texture;
#X obj 418 420 pix_separator;
#X obj 386 741 pix_separator;
#X msg 430 484 vertical;
#X obj 386 795 s video-\$1;
#X obj 386 263 pix_deinterlace;
#X obj 518 134 init \$1;
#X obj 518 161 sel 0 1 2 3 4 5;
#X msg 518 195 mode 1;
#X msg 552 246 mode 0;
#X floatatom 137 221 5 0 0 0 - - -, f 5;
#X text 134 234 stream;
#X obj 587 -7 r reloadbang;
#X msg 556 669 record 0;
#X obj 556 588 r stopStream;
#X obj 386 309 pix_flip;
#X obj 393 285 inlet;
#X floatatom 135 268 5 0 0 3 delay - -, f 5;
#X connect 0 0 1 0;
#X connect 1 0 3 0;
#X connect 1 0 11 0;
#X connect 2 0 1 0;
#X connect 3 1 4 0;
#X connect 3 2 5 0;
#X connect 6 1 32 0;
#X connect 7 0 9 0;
#X connect 8 0 6 0;
#X connect 9 0 10 0;
#X connect 10 0 8 0;
#X connect 11 0 27 0;
#X connect 12 0 11 1;
#X connect 12 0 15 1;
#X connect 13 0 14 0;
#X connect 13 0 39 0;
#X connect 16 0 2 0;
#X connect 17 0 16 0;
#X connect 18 0 21 0;
#X connect 19 0 25 0;
#X connect 20 0 24 0;
#X connect 20 1 23 0;
#X connect 21 0 6 0;
#X connect 22 0 26 0;
#X connect 23 0 18 0;
#X connect 24 0 22 0;
#X connect 25 0 18 0;
#X connect 27 0 37 0;
#X connect 28 0 29 0;
#X connect 29 0 30 0;
#X connect 29 1 30 0;
#X connect 29 2 31 0;
#X connect 29 3 31 0;
#X connect 29 4 31 0;
#X connect 29 5 31 0;
#X connect 29 6 31 0;
#X connect 30 0 27 0;
#X connect 31 0 27 0;
#X connect 34 0 16 0;
#X connect 35 0 6 0;
#X connect 36 0 35 0;
#X connect 37 0 20 0;
#X connect 38 0 37 0;
#X coords 0 -1 1 1 85 200 1 100 100;
