#N canvas 691 468 1226 597 10;
#X obj 164 102 tgl 15 0 empty empty empty 17 7 0 10 -262144 -1 -1 0
1;
#X obj 230 -104 r X;
#X obj 598 -100 r Y;
#X obj 694 -98 r X;
#X obj 1104 -98 r Y;
#X obj 164 -66 r bt-G;
#X obj 164 -39 spigot;
#X obj 164 -13 sel 1;
#X obj 611 -68 r bt-G;
#X obj 611 -41 spigot;
#X obj 611 -15 sel 1;
#X obj 164 222 gemhead;
#X obj 611 219 gemhead;
#X obj 267 276 color 1 0 0;
#X obj 267 307 square 0.07;
#X floatatom 310 208 5 0 0 0 - - -;
#X floatatom 757 197 5 0 0 0 - - -;
#X floatatom 353 208 5 0 0 0 - - -;
#X floatatom 800 198 5 0 0 0 - - -;
#X obj 310 121 bng 15 250 50 0 empty empty empty 17 7 0 10 -262144
-1 -1;
#X obj 394 412 text2d;
#X floatatom 444 302 5 0 0 0 - - -;
#X floatatom 494 303 5 0 0 0 - - -;
#X floatatom 531 398 5 0 0 0 - - -;
#X msg 402 387 text live;
#X obj 394 273 gemhead;
#X obj 899 422 text2d;
#X floatatom 949 312 5 0 0 0 - - -;
#X floatatom 999 313 5 0 0 0 - - -;
#X floatatom 1036 408 5 0 0 0 - - -;
#X obj 899 369 color 0 0 0;
#X obj 899 283 gemhead;
#X msg 907 397 text pre;
#X obj 394 359 color 0 0 0;
#X obj 531 370 init 13;
#X obj 1036 380 init 13;
#X obj 611 102 tgl 15 0 empty empty empty 17 7 0 10 -262144 -1 -1 0
1;
#X obj 310 172 - 0;
#X obj 310 145 init \$1;
#X obj 230 -69 expr $f1 > \$2 & $f1 < \$2+123 & $f2 > \$3 & $f2 < \$3+39
;
#X obj 694 -71 expr $f1 > \$2+123+6 & $f1 < \$2+123+6+123 & $f2 > \$3
& $f2 < \$3+39;
#X obj 164 78 t b;
#X obj 611 75 t b;
#X obj 178 131 outlet;
#X obj 626 132 outlet;
#X obj 211 85 init 0;
#X obj 539 85 init 0;
#X obj 267 239 translateXYZ 0 \$4 0;
#X obj 394 331 translateXYZ 0.59 \$4 0;
#X obj 714 236 translateXYZ 0 \$4 0;
#X obj 899 341 translateXYZ 0.59 \$4 0;
#X obj 247 -24 notein;
#X obj 247 34 stripnote;
#X obj 247 61 sel \$5;
#X obj 691 -27 notein;
#X obj 691 31 stripnote;
#X obj 691 58 sel \$6;
#X obj 757 162 + 1.11;
#X obj 444 189 + 0.39;
#X obj 949 179 + 0.43;
#X obj 714 293 rectangle 0.07 0.07;
#X obj 714 262 color 0 1 0;
#X connect 0 0 11 0;
#X connect 0 0 43 0;
#X connect 1 0 39 0;
#X connect 2 0 39 1;
#X connect 3 0 40 0;
#X connect 4 0 40 1;
#X connect 5 0 6 0;
#X connect 6 0 7 0;
#X connect 7 0 41 0;
#X connect 8 0 9 0;
#X connect 9 0 10 0;
#X connect 10 0 42 0;
#X connect 11 0 47 0;
#X connect 12 0 49 0;
#X connect 13 0 14 0;
#X connect 15 0 47 1;
#X connect 16 0 49 1;
#X connect 17 0 47 2;
#X connect 18 0 49 2;
#X connect 19 0 38 0;
#X connect 21 0 48 1;
#X connect 22 0 48 2;
#X connect 23 0 20 1;
#X connect 24 0 20 0;
#X connect 25 0 48 0;
#X connect 27 0 50 1;
#X connect 28 0 50 2;
#X connect 29 0 26 1;
#X connect 30 0 26 0;
#X connect 31 0 50 0;
#X connect 32 0 26 0;
#X connect 33 0 20 0;
#X connect 34 0 23 0;
#X connect 34 0 24 0;
#X connect 35 0 29 0;
#X connect 35 0 32 0;
#X connect 36 0 12 0;
#X connect 36 0 44 0;
#X connect 37 0 15 0;
#X connect 37 0 58 0;
#X connect 38 0 37 0;
#X connect 38 0 57 0;
#X connect 39 0 6 1;
#X connect 40 0 9 1;
#X connect 41 0 0 0;
#X connect 42 0 36 0;
#X connect 45 0 0 0;
#X connect 46 0 36 0;
#X connect 47 0 13 0;
#X connect 48 0 33 0;
#X connect 49 0 61 0;
#X connect 50 0 30 0;
#X connect 51 0 52 0;
#X connect 51 1 52 1;
#X connect 52 0 53 0;
#X connect 53 0 41 0;
#X connect 54 0 55 0;
#X connect 54 1 55 1;
#X connect 55 0 56 0;
#X connect 56 0 42 0;
#X connect 57 0 16 0;
#X connect 57 0 59 0;
#X connect 58 0 21 0;
#X connect 59 0 27 0;
#X connect 61 0 60 0;
