#N canvas 52 317 1225 679 10;
#X obj 240 -94 r X;
#X obj 594 -94 r Y;
#X obj 704 -88 r X;
#X obj 1086 -87 r Y;
#X obj 174 -69 r bt-G;
#X obj 174 -42 spigot;
#X obj 174 -16 sel 1;
#X obj 621 -58 r bt-G;
#X obj 621 -31 spigot;
#X obj 621 -5 sel 1;
#X obj 240 -59 expr $f1 > \$1 & $f1 < \$1+8 & $f2 > \$2 & $f2 < \$2+15
;
#X obj 174 10 t b b;
#X obj 621 32 t b b;
#X floatatom 347 232 5 0 0 0 - - -;
#X obj 386 229 outlet;
#X floatatom 240 -21 5 0 0 0 - - -;
#X floatatom 704 -7 5 0 0 0 - - -;
#X floatatom 769 -6 5 0 0 0 - - -;
#X obj 704 -61 expr $f1 > \$1+8+20 & $f1 < \$1+8+20+8 & $f2 > \$2 &
$f2 < \$2+15;
#X obj 174 216 outlet;
#X obj 621 215 outlet;
#X obj 386 176 counter 0 1 \$3;
#X msg 653 70 0;
#X obj 386 75 loadbang;
#X obj 386 102 t b b;
#X msg 206 43 1;
#X floatatom 433 -337 5 0 0 0 - - -;
#X obj 433 -235 t f f;
#X obj 415 -168 >;
#X floatatom 433 -286 5 0 0 0 - - -;
#X obj 433 -262 change;
#X obj 415 -124 sel 1 0;
#X obj 433 -364 inlet;
#X obj 106 -31 bng 15 250 50 0 empty empty empty 17 7 0 10 -262144
-1 -1;
#X obj 114 -58 bng 15 250 50 0 empty empty empty 17 7 0 10 -262144
-1 -1;
#X obj 104 -216 tgl 15 0 empty empty empty 17 7 0 10 -262144 -1 -1
0 1;
#X obj 106 -189 metro 800;
#X obj 1098 -248 inlet;
#X obj 433 -313 div 10;
#X obj 724 -231 expr 127 / $f1;
#X floatatom 724 -186 5 0 0 0 - - -;
#X connect 0 0 10 0;
#X connect 1 0 10 1;
#X connect 2 0 17 0;
#X connect 2 0 18 0;
#X connect 3 0 18 1;
#X connect 4 0 5 0;
#X connect 5 0 6 0;
#X connect 6 0 11 0;
#X connect 7 0 8 0;
#X connect 8 0 9 0;
#X connect 9 0 12 0;
#X connect 10 0 5 1;
#X connect 10 0 15 0;
#X connect 11 0 19 0;
#X connect 11 0 21 0;
#X connect 11 1 25 0;
#X connect 12 0 20 0;
#X connect 12 0 21 0;
#X connect 12 1 22 0;
#X connect 18 0 8 1;
#X connect 18 0 16 0;
#X connect 21 0 13 0;
#X connect 21 0 14 0;
#X connect 22 0 21 1;
#X connect 23 0 24 0;
#X connect 24 0 21 0;
#X connect 24 1 21 2;
#X connect 25 0 21 1;
#X connect 26 0 38 0;
#X connect 27 0 28 1;
#X connect 27 1 28 0;
#X connect 28 0 31 0;
#X connect 29 0 30 0;
#X connect 30 0 27 0;
#X connect 31 0 11 0;
#X connect 31 1 12 0;
#X connect 32 0 26 0;
#X connect 33 0 11 0;
#X connect 35 0 36 0;
#X connect 36 0 33 0;
#X connect 37 0 21 4;
#X connect 37 0 39 0;
#X connect 38 0 29 0;
#X connect 39 0 40 0;
#X connect 40 0 38 1;
