#N canvas 3 77 404 409 10;
#X obj 94 319 outlet;
#X obj 94 84 inlet;
#X obj 124 238 r sX;
#X obj 154 265 r sY;
#X obj 121 130 r tX;
#X obj 148 157 r tY;
#X obj 94 211 color \$1 \$2 \$3;
#X obj 94 184 translateXYZ;
#X obj 202 140 sel 1 0;
#X obj 202 113 change;
#X obj 202 86 > \$4;
#X obj 94 292 rectangle;
#X obj 202 59 r son-\$5;
#X obj 202 167 pack \$1 \$2 \$3 1;
#X msg 231 194 0 0 0 0;
#X connect 1 0 7 0;
#X connect 2 0 11 1;
#X connect 3 0 11 2;
#X connect 4 0 7 1;
#X connect 5 0 7 2;
#X connect 6 0 11 0;
#X connect 7 0 6 0;
#X connect 8 0 13 0;
#X connect 8 1 14 0;
#X connect 9 0 8 0;
#X connect 10 0 9 0;
#X connect 11 0 0 0;
#X connect 12 0 10 0;
#X connect 13 0 6 1;
#X connect 14 0 6 1;
