#N canvas 645 54 667 617 10;
#X obj 36 160 gemwin;
#X msg 36 133 create \, 1;
#X obj 189 26 gemhead;
#X obj 344 138 s sX;
#X floatatom 344 112 5 0 0 0 - - -;
#X floatatom 429 117 5 0 0 0 - - -;
#X obj 429 143 s sY;
#X floatatom 344 195 5 0 0 0 - - -;
#X obj 344 221 s tY;
#X obj 344 85 init 0.06;
#X obj 429 85 init -0.04;
#X obj 344 168 init -0.19;
#X obj 427 422 s son;
#X obj 427 281 vsl 15 128 0 100 0 0 empty empty empty 0 -9 0 10 -262144
-1 -1 12700 1;
#X obj 189 351 LED 0 1 0 15;
#X obj 189 324 LED 0 1 0 25;
#X obj 189 297 LED 0 1 0 35;
#X obj 189 270 LED 0 1 0 45;
#X obj 189 243 LED 0 1 0 55;
#X obj 189 216 LED 0 1 0 65;
#X obj 189 189 LED 1 1 0 75;
#X obj 189 162 LED 1 0.5 0 85;
#X obj 189 135 LED 1 0 0 95;
#X obj 189 108 translateXYZ;
#X floatatom 212 56 5 0 0 0 - - -;
#X floatatom 235 82 5 0 0 0 - - -;
#X connect 1 0 0 0;
#X connect 2 0 23 0;
#X connect 4 0 3 0;
#X connect 5 0 6 0;
#X connect 7 0 8 0;
#X connect 9 0 4 0;
#X connect 10 0 5 0;
#X connect 11 0 7 0;
#X connect 13 0 12 0;
#X connect 15 0 14 0;
#X connect 16 0 15 0;
#X connect 17 0 16 0;
#X connect 18 0 17 0;
#X connect 19 0 18 0;
#X connect 20 0 19 0;
#X connect 21 0 20 0;
#X connect 22 0 21 0;
#X connect 23 0 22 0;
#X connect 24 0 23 1;
#X connect 25 0 23 2;
